/* XPM */
static char *result[] = {
/* columns rows colors chars-per-pixel */
"50 50 4 1 ",
"  c #ED0C0C",
". c gray78",
"X c #E6E6E6",
"o c None",
/* pixels */
"oooooooooooooooooooooooooooooooooooooooooooooooooo",
"oooooooooooooooooooooooooooooooooooooooooooooooooo",
"oooooooooooooooooooooooooooooooooooooooooooooooooo",
"oooooooooooooooooooooooooooooooooooooooooooooooooo",
"oooooooooooooooooooooooooooooooooooooooooooooooooo",
"oooooooooooooooooooooooooooooooooooooooooooooooooo",
"oooooooooooooooooooooooooooooooooooooooooooooooooo",
"oooooooooooooXXXXXXooooooooooooooooooooooooooooooo",
"oooooooooooooXXXXXXooooooooooooooooooooooooooooooo",
"oooooooooooooXXXXXXooooooooooooooooooooooooooooooo",
"oooooooooooooXXXXXXooooooooooooooooooooooooooooooo",
"ooooooooooooo                       oooooooooooooo",
"ooooooooooooo                       oooooooooooooo",
"ooooooooooooo                       oooooooooooooo",
"ooooooooooooo                       oooooooooooooo",
"ooooooooooooo                       oooooooooooooo",
"ooooooooooooo  .....                oooooooooooooo",
"ooooooooooooo  .                    oooooooooooooo",
"ooooooooooooo  .    .  . ... .      oooooooooooooo",
"ooooooooooooo  .... .  . .   .      oooooooooooooo",
"ooooooooooooo  .    .  . ..  .      oooooooooooooo",
"ooooooooooooo  .    .  . .   .      oooooooooooooo",
"ooooooooooooo  .    .... ... ...    oooooooooooooo",
"ooooooooooooo                       oooooooooooooo",
"ooooooooooooo                       oooooooooooooo",
"ooooooooooooo                       oooooooooooooo",
"ooooooooooooo                       oooooooooooooo",
"ooooooooooooo                       oooooooooooooo",
"ooooooooooooo                       oooooooooooooo",
"ooooooooooooo                       oooooooooooooo",
"ooooooooooooo                       oooooooooooooo",
"ooooooooooooo                       oooooooooooooo",
"ooooooooooooo                       oooooooooooooo",
"ooooooooooooo                       oooooooooooooo",
"ooooooooooooo                       oooooooooooooo",
"ooooooooooooo                       oooooooooooooo",
"ooooooooooooo                       oooooooooooooo",
"oooooooooooooooooooooooooooooooooooooooooooooooooo",
"oooooooooooooooooooooooooooooooooooooooooooooooooo",
"oooooooooooooooooooooooooooooooooooooooooooooooooo",
"oooooooooooooooooooooooooooooooooooooooooooooooooo",
"oooooooooooooooooooooooooooooooooooooooooooooooooo",
"oooooooooooooooooooooooooooooooooooooooooooooooooo",
"oooooooooooooooooooooooooooooooooooooooooooooooooo",
"oooooooooooooooooooooooooooooooooooooooooooooooooo",
"oooooooooooooooooooooooooooooooooooooooooooooooooo",
"oooooooooooooooooooooooooooooooooooooooooooooooooo",
"oooooooooooooooooooooooooooooooooooooooooooooooooo",
"oooooooooooooooooooooooooooooooooooooooooooooooooo",
"oooooooooooooooooooooooooooooooooooooooooooooooooo"
};
