/* XPM */
static char *result[] = {
/* columns rows colors chars-per-pixel */
"50 50 5 1 ",
"  c #D40B0B",
". c #EDB528",
"X c #8FFA0D",
"o c gray92",
"O c None",
/* pixels */
"OOOOOOOOOOOOOOOOOOOOOOOOOOOOOOOOOOOOOOOOOOOOOOOOOO",
"OOOOOOOOOOOOOOOOOOOOOOOOOOOOOOOOOOOOOOOOOOOOOOOOOO",
"OOOOOOOOOOOOOOOOOOOOOOOOOOOOOOOOOOOOOOOOOOOOOOOOOO",
"OOOOOOOOOOOOOOOOOOOOOOOOOOOOOOOOOOOOOOOOOOOOOOOOOO",
"OOOOOOOOOOOOOOOOOOOOOOOOOOOOOOOOOOOOOOOOOOOOOOOOOO",
"OOOOOOOOOOOOOOOOOOOOOOOOOOOOOOOOOOOOOOOOOOOOOOOOOO",
"OOOOOOOOOOOOOOOOOOOOOOOOOOOOOOOOOOOOOOOOOOOOOOOOOO",
"OOOOOOOOOOOOOOOOOOOOOOOO...OOOOOOOOOOOOOOOOOOOOOOO",
"OOOOOOOOOOOOOOOOOOOOOOO.....OOOOOOOOOOOOOOOOOOOOOO",
"OOOOOOOOOOOOOOOOOOOOOO.......OOOOOOOOOOOOOOOOOOOOO",
"OOOOOOOOOOOOOOOOOOOOO.........OOOOOOOOOOOOOOOOOOOO",
"OOOOOOOOOOOOOOOOOOOO...........OOOOOOOOOOOOOOOOOOO",
"OOOOOOOOOOOOOOOOOOOO...........OOOOOOOOOOOOOOOOOOO",
"OOOOOOOOOOOOOOOOOOO............OOOOOOOOOOOOOOOOOOO",
"OOOOOOOOOOOOOOOOOOOXXXXXXXXXXXXXOOOOOOOOOOOOOOOOOO",
"OOOOOOOOOOOOOOOOOOOXXXXXXXXXXXXXOOOOOOOOOOOOOOOOOO",
"OOOOOOOOOOOOOOOOOOOXXXXoooooXXXXOOOOOOOOOOOOOOOOOO",
"OOOOOOOOOOOOOOOOOOOXXXoooooooXXXOOOOOOOOOOOOOOOOOO",
"OOOOOOOOOOOOOOOOOOXXXoooooooooXXXOOOOOOOOOOOOOOOOO",
"OOOOOOOOOOOOOOOOOOXXXXoooooooXXXXOOOOOOOOOOOOOOOOO",
"OOOOOOOOOOOOOOOOOOXXXXXoooooXXXXXOOOOOOOOOOOOOOOOO",
"OOOOOOOOOOOOOOOOOOXXXXXXXXXXXXXXXOOOOOOOOOOOOOOOOO",
"OOOOOOOOOOOOOOOOOOXXXXXXXXXXXXXXXOOOOOOOOOOOOOOOOO",
"OOOOOOOOOOOOOOOOOOXXXXXXXXXXXXXXXOOOOOOOOOOOOOOOOO",
"OOOOOOOOOOOOOOOOOOXXXXXXXXXXXXXXXOOOOOOOOOOOOOOOOO",
"OOOOOOOOOOOOOOOOOOXXXXXXXXXXXXXXXOOOOOOOOOOOOOOOOO",
"OOOOOOOOOOOOOOOOOOXXXXXXXXXXXXXXXOOOOOOOOOOOOOOOOO",
"OOOOOOOOOOOOOOOOOOXXXXXXXXXXXXXXXOOOOOOOOOOOOOOOOO",
"OOOOOOOOOOOOOOOOOOXXXXXXXXXXXXXXXOOOOOOOOOOOOOOOOO",
"OOOOOOOOOOOOOOOOOOXXXXXXXXXXXXXXXOOOOOOOOOOOOOOOOO",
"OOOOOOOOOOOOOOOOOOXXXXXXXXXXXXXXXOOOOOOOOOOOOOOOOO",
"OOOOOOOOOOOOOOOOOOOXXXXXXXXXXXXXOOOOOOOOOOOOOOOOOO",
"OOOOOOOOOOOOOOOOOOOXXXXXXXXXXXXXOOOOOOOOOOOOOOOOOO",
"OOOOOOOOOOOOOOOOOOOXXXXXXXXXXXXXOOOOOOOOOOOOOOOOOO",
"OOOOOOOOOOOOOOOOOOOXXXXXXXXXXXXXOOOOOOOOOOOOOOOOOO",
"OOOOOOOOOOOOOOOOOOOOXXX      XXOOOOOOOOOOOOOOOOOOO",
"OOOOOOOOOOOOOOOOOOOOXX        XOOOOOOOOOOOOOOOOOOO",
"OOOOOOOOOOOOOOOOOOOO           OOOOOOOOOOOOOOOOOOO",
"OOOOOOOOOOOOOOOOOOOOo         OOOOOOOOOOOOOOOOOOOO",
"OOOOOOOOOOOOOOOOOOOoOO       oOOOOOOOOOOOOOOOOOOOO",
"OOOOOOOOOOOOOOOOOOoOOOO     OOoOOOOOOOOOOOOOOOOOOO",
"OOOOOOOOOOOOOOOOOOoOOOOo   oOOOoOOOOOOOOOOOOOOOOOO",
"OOOOOOOOOOOOOOOOOoOOOOOoOOOoOOOOoOOOOOOOOOOOOOOOOO",
"OOOOOOOOOOOOOOOOoOOOOOOoOOOoOOOOOoOOOOOOOOOOOOOOOO",
"OOOOOOOOOOOOOOOoOOOOOOoOOOOOoOOOOOoOOOOOOOOOOOOOOO",
"OOOOOOOOOOOOOOOOOOOOOOoOOOOOoOOOOOOOOOOOOOOOOOOOOO",
"OOOOOOOOOOOOOOOOOOOOOOOOOOOOOOOOOOOOOOOOOOOOOOOOOO",
"OOOOOOOOOOOOOOOOOOOOOOOOOOOOOOOOOOOOOOOOOOOOOOOOOO",
"OOOOOOOOOOOOOOOOOOOOOOOOOOOOOOOOOOOOOOOOOOOOOOOOOO",
"OOOOOOOOOOOOOOOOOOOOOOOOOOOOOOOOOOOOOOOOOOOOOOOOOO"
};
