/* XPM */
static char *result[] = {
/* columns rows colors chars-per-pixel */
"50 50 3 1 ",
"  c #9FF205",
". c #FFE605",
"X c None",
/* pixels */
"XXXXXXXXXXXXXXXXXXXXXXXXXXXXXXXXXXXXXXXXXXXXXXXXXX",
"XXXXXXXXXXXXXXXXXXXXXXXXXXXXXXXXXXXXXXXXXXXXXXXXXX",
"XXXXXXXXXXXXXXXXXXXXXXXXXXXXXXXXXXXXXXXXXXXXXXXXXX",
"XXXXXXXXXXXXXXXXXXXXXXXXXXXXXXXXXXXXXXXXXXXXXXXXXX",
"XXXXXXXXXXXXXXXXXXXXXXXXXXXXXXXXXXXXXXXXXXXXXXXXXX",
"XXXXXXXXXXXXXXXXXXXXXXXXXXXXXXXXXXXXXXXXXXXXXXXXXX",
"XXXXXXXXXXXXXXXXXXXXX         XXXXXXXXXXXXXXXXXXXX",
"XXXXXXXXXXXXXXXXXX               XXXXXXXXXXXXXXXXX",
"XXXXXXXXXXXXXXXX                   XXXXXXXXXXXXXXX",
"XXXXXXXXXXXXXX                       XXXXXXXXXXXXX",
"XXXXXXXXXXXXX                         XXXXXXXXXXXX",
"XXXXXXXXXXXX                           XXXXXXXXXXX",
"XXXXXXXXXXX                             XXXXXXXXXX",
"XXXXXXXXXX       .....                   XXXXXXXXX",
"XXXXXXXXX       .......                   XXXXXXXX",
"XXXXXXXXX      .........                  XXXXXXXX",
"XXXXXXXX       .........                   XXXXXXX",
"XXXXXXXX       .........                   XXXXXXX",
"XXXXXXXX        .......                    XXXXXXX",
"XXXXXXX          .....                      XXXXXX",
"XXXXXXX                                     XXXXXX",
"XXXXXXX                                     XXXXXX",
"XXXXXXX                                     XXXXXX",
"XXXXXXX                                     XXXXXX",
"XXXXXXX                                     XXXXXX",
"XXXXXXX                                     XXXXXX",
"XXXXXXXX                                   XXXXXXX",
"XXXXXXXX                                   XXXXXXX",
"XXXXXXXX                                   XXXXXXX",
"XXXXXXXXX                                 XXXXXXXX",
"XXXXXXXXX                                 XXXXXXXX",
"XXXXXXXXXX                               XXXXXXXXX",
"XXXXXXXXXXX                             XXXXXXXXXX",
"XXXXXXXXXXXX                           XXXXXXXXXXX",
"XXXXXXXXXXXXX                         XXXXXXXXXXXX",
"XXXXXXXXXXXXXX                       XXXXXXXXXXXXX",
"XXXXXXXXXXXXXXXX                   XXXXXXXXXXXXXXX",
"XXXXXXXXXXXXXXXXXX               XXXXXXXXXXXXXXXXX",
"XXXXXXXXXXXXXXXXXXXXX         XXXXXXXXXXXXXXXXXXXX",
"XXXXXXXXXXXXXXXXXXXXXXXXXXXXXXXXXXXXXXXXXXXXXXXXXX",
"XXXXXXXXXXXXXXXXXXXXXXXXXXXXXXXXXXXXXXXXXXXXXXXXXX",
"XXXXXXXXXXXXXXXXXXXXXXXXXXXXXXXXXXXXXXXXXXXXXXXXXX",
"XXXXXXXXXXXXXXXXXXXXXXXXXXXXXXXXXXXXXXXXXXXXXXXXXX",
"XXXXXXXXXXXXXXXXXXXXXXXXXXXXXXXXXXXXXXXXXXXXXXXXXX",
"XXXXXXXXXXXXXXXXXXXXXXXXXXXXXXXXXXXXXXXXXXXXXXXXXX",
"XXXXXXXXXXXXXXXXXXXXXXXXXXXXXXXXXXXXXXXXXXXXXXXXXX",
"XXXXXXXXXXXXXXXXXXXXXXXXXXXXXXXXXXXXXXXXXXXXXXXXXX",
"XXXXXXXXXXXXXXXXXXXXXXXXXXXXXXXXXXXXXXXXXXXXXXXXXX",
"XXXXXXXXXXXXXXXXXXXXXXXXXXXXXXXXXXXXXXXXXXXXXXXXXX",
"XXXXXXXXXXXXXXXXXXXXXXXXXXXXXXXXXXXXXXXXXXXXXXXXXX"
};
