/* XPM */
static char *_f8f01024d5e4a458f05a8b17d36fdcfuugodfDN1BgvbG4P[] = {
/* columns rows colors chars-per-pixel */
"50 50 3 1 ",
"  c None",
". c #4FA82B",
"X c #B800B8",
/* pixels */
"                                                  ",
"        XX                            XXXX        ",
"        XX                             XXXX       ",
"       XXX                               XXX      ",
"       XX                                XXX      ",
"      XXX                               XXXX      ",
"      XXX                              XXXX       ",
"      XXXX                            XXXX        ",
"       XXXXX         XXXXXXXXX       XXXX         ",
"         XXXXX     XXXXXXXXXXXXX    XXXX          ",
"           XXXX  XXXXXXXXXXXXXXXXX XXXX           ",
"             XXXXXXXXXXXXXXXXXXXXXXXXX            ",
"              XXXXXXXXXXXXXXXXXXXXXXX             ",
"             XXXXXXXXXXXXXXXXXXXXXXXXX            ",
"            XXXXXXXXXXXXXXXXXXXXXXXXXXX           ",
"           XXXXXXXXXXXXXXXXXXXXXXXXXXXXX          ",
"           XXXXXXXXXXXXXXXXXXXXXXXXXXXXX          ",
"          XXXXXXXX...XXXXXXXXX...XXXXXXXX         ",
"          XXXXXXX.....XXXXXXX.....XXXXXXX         ",
"          XXXXXXX.....XXXXXXX.....XXXXXXX         ",
"         XXXXXXXX.....XXXXXXX.....XXXXXXXX        ",
"         XXXXXXXXX...XXXXXXXXX...XXXXXXXXX        ",
"         XXXXXXXXXXXXXXXXXXXXXXXXXXXXXXXXX        ",
"         XXXXXXXXXXXXXXXXXXXXXXXXXXXXXXXXX        ",
"         XXXXXXXXXXXXXXXXXXXXXXXXXXXXXXXXX        ",
"         XXXXXXXXXXXXXXXXXXXXXXXXXXXXXXXXX        ",
"         XXXXXXXXXXXXXXXXXXXXXXXXXXXXXXXXX        ",
"          XXXXXXXXXXXXXXXXXXXXXXXXXXXXXXX         ",
"          XXXXXXXXXXXXXX...XXXXXXXXXXXXXX         ",
"          XXXXXXXXXXXXX.....XXXXXXXXXXXXX         ",
"           XXXXXXXXXXXX.....XXXXXXXXXXXX          ",
"           XXXXXXXXXXX.......XXXXXXXXXXX          ",
"            XXXXXXXXX.........XXXXXXXXX           ",
"             XXXXXXXX.........XXXXXXXX            ",
"              XXXXXX...........XXXXXX             ",
"               XXXXXXXXXXXXXXXXXXXXX              ",
"                 XXXXXXXXXXXXXXXXX                ",
"                   XXXXXXXXXXXXX                  ",
"                     XXXXXXXXX                    ",
"                                                  ",
"                                                  ",
"                                                  ",
"                                                  ",
"                                                  ",
"                                                  ",
"                                                  ",
"                                                  ",
"                                                  ",
"                                                  ",
"                                                  "
};
