/* XPM */
static char *result[] = {
/* columns rows colors chars-per-pixel */
"50 50 3 1 ",
"  c #4FA82B",
". c #B800B8",
"X c None",
/* pixels */
"XXXXXXXXXXXXXXXXXXXXX...XXXXXXXXXXXXXXXXXXXXXXXXXX",
"XXXXXXXXXXXXXXXXXXXXXX....XXXXXXXXXXXXXXXXXXXXXXXX",
"XXXXXXXXXXXXXXXXX..XXXX....XXXXXXXXXXXXXXXXXXXXXXX",
"XXXXXXXXXXXXXXXX.X..XXXXX..XXXXXXXXXXXXXXXXXXXXXXX",
"XXXXXXXXXXXXXXXXXXX...XXX..XXXXXXXXXXXXXXXXXXXXXXX",
"XXXXXXXXXXXXXXXXXXXX...XX..XXXXXXXXXXXXXXXXXXXXXXX",
"XXXXXXXXXXXXXXXXXXXXX......XXXXXXXXXXXXXXXXXXXXXXX",
"XXXXXXXXXXXXXXXXXXXXXX.....XXXXXXXXXXXXXXXXXXXXXXX",
"XXXXXXXXXXXXXXXXXXXXX.........XXXXXXXXXXXXXXXXXXXX",
"XXXXXXXXXXXXXXXXXXX.............XXXXXXXXXXXXXXXXXX",
"XXXXXXXXXXXXXXXXX.................XXXXXXXXXXXXXXXX",
"XXXXXXXXXXXXXX......................XXXXXXXXXXXXXX",
"XXXXXXXXXXXXXX.......................XXXXXXXXXXXXX",
"XXXXXXXXXXXXX.........................XXXXXXXXXXXX",
"XXXXXXXXXXXX...........................XXXXXXXXXXX",
"XXXXXXXXXXX.....   .....................XXXXXXXXXX",
"XXXXXXXXXXX....     ....................XXXXXXXXXX",
"XXXXXXXXXX.....     .....................XXXXXXXXX",
"XXXXXXXXXX.....     .....................XXXXXXXXX",
"XXXXXXXXXX......   ......................XXXXXXXXX",
"XXXXXXXXX.................................XXXXXXXX",
"XXXXXXXXX.................................XXXXXXXX",
"XXXXXXXXX.................................XXXXXXXX",
"XXXXXXXXX.................................XXXXXXXX",
"XXXXXXXXX.................................XXXXXXXX",
"XXXXXXXXX.................................XXXXXXXX",
"XXXXXXXXX.................................XXXXXXXX",
"XXXXXXXXXX...............................XXXXXXXXX",
"XXXXXXXXXX...............................XXXXXXXXX",
"XXXXXXXXXX...............................XXXXXXXXX",
"XXXXXXXXXXX.............................XXXXXXXXXX",
"XXXXXXXXXXX.............................XXXXXXXXXX",
"XXXXXXXXXXXX...........................XXXXXXXXXXX",
"XXXXXXXXXXXXX.........................XXXXXXXXXXXX",
"XXXXXXXXXXXXXX.......................XXXXXXXXXXXXX",
"XXXXXXXXXXXXXXX.....................XXXXXXXXXXXXXX",
"XXXXXXXXXXXXXXXXX.................XXXXXXXXXXXXXXXX",
"XXXXXXXXXXXXXXXXXXX.............XXXXXXXXXXXXXXXXXX",
"XXXXXXXXXXXXXXXXXXXXX.........XXXXXXXXXXXXXXXXXXXX",
"XXXXXXXXXXXXXXXXXXXXXXXXXXXXXXXXXXXXXXXXXXXXXXXXXX",
"XXXXXXXXXXXXXXXXXXXXXXXXXXXXXXXXXXXXXXXXXXXXXXXXXX",
"XXXXXXXXXXXXXXXXXXXXXXXXXXXXXXXXXXXXXXXXXXXXXXXXXX",
"XXXXXXXXXXXXXXXXXXXXXXXXXXXXXXXXXXXXXXXXXXXXXXXXXX",
"XXXXXXXXXXXXXXXXXXXXXXXXXXXXXXXXXXXXXXXXXXXXXXXXXX",
"XXXXXXXXXXXXXXXXXXXXXXXXXXXXXXXXXXXXXXXXXXXXXXXXXX",
"XXXXXXXXXXXXXXXXXXXXXXXXXXXXXXXXXXXXXXXXXXXXXXXXXX",
"XXXXXXXXXXXXXXXXXXXXXXXXXXXXXXXXXXXXXXXXXXXXXXXXXX",
"XXXXXXXXXXXXXXXXXXXXXXXXXXXXXXXXXXXXXXXXXXXXXXXXXX",
"XXXXXXXXXXXXXXXXXXXXXXXXXXXXXXXXXXXXXXXXXXXXXXXXXX",
"XXXXXXXXXXXXXXXXXXXXXXXXXXXXXXXXXXXXXXXXXXXXXXXXXX"
};
