/* XPM */
static char *_e10217a37f147fefe788287429b0f4co8kloeH0qUGa4lwf[] = {
/* columns rows colors chars-per-pixel */
"50 50 3 1 ",
"  c None",
". c black",
"X c gray97",
/* pixels */
"                                                  ",
"                                                  ",
"                                                  ",
"                                                  ",
"                                                  ",
"                                                  ",
"                                                  ",
"                                                  ",
"        XXXXX                                     ",
"           ..XXX..                                ",
"                XXXXXX  XXX                       ",
"              XX    .XXXXXXXX                     ",
"             XX      X .X  X X                    ",
"            XXXXX    X X.  X X                    ",
"           X     XXXXX X . X  X                   ",
"          X        XXXXX  .X  X                   ",
"         X      XXXX  XXXX X  X                   ",
"         X     X  XX XX XXXX  X                   ",
"         X     X  XXXXXX XXXXXX   XXX             ",
"         X     X XXXXXX XXX .XXX X   X            ",
"         X    X  XX.XXXXXXX. X  XX   X            ",
"         X    X  XXXXXXXXXXXX.  X X  X            ",
"          XXXXXXXXXXXXXXXXX X. X   X X            ",
"               XXXX XXX XXXX .X     XX            ",
"              XX X XXXXXXXXX .X     XX            ",
"              X XXXXXXXXXXX XX      XX            ",
"               XXXXXXXXXXX  .XX    XX             ",
"              X   XXXXXXXXXX.X XX XX              ",
"              X    XXXX XXXXX   XX                ",
"              XX     XX X. .X XXXX                ",
"               XX    XX.   .XXXXX                 ",
"                     X XXXXXXXXX                  ",
"                      XXXXX                       ",
"                                                  ",
"                                                  ",
"                                                  ",
"                                                  ",
"                                                  ",
"                                                  ",
"                                                  ",
"                                                  ",
"                                                  ",
"                                                  ",
"                                                  ",
"                                                  ",
"                                                  ",
"                                                  ",
"                                                  ",
"                                                  ",
"                                                  "
};
